<?xml version="1.0" encoding="UTF-8" standalone="no"?>
<!-- Created with Inkscape (http://www.inkscape.org/) -->
<svg
   xmlns:svg="http://www.w3.org/2000/svg"
   xmlns="http://www.w3.org/2000/svg"
   version="1.0"
   width="744.09448"
   height="1052.3622"
   id="svg2453">
  <defs
     id="defs2455" />
  <g
     id="layer1">
    <path
       d="M 322.85715,469.50504 C 333.8876,481.96801 311.49934,490.52266 302.14287,487.83837 C 276.78739,480.56413 274.66288,447.38925 286.19047,428.07647 C 306.81063,393.53045 354.96341,392.27223 384.99999,414.50502 C 429.07988,447.13255 429.40238,511.99583 396.1905,552.36216 C 351.92427,606.16414 269.84066,605.48103 219.28574,561.17172 C 155.66753,505.41298 157.38886,405.89525 212.85712,345.21935 C 280.03662,271.73269 397.09836,274.50877 467.85712,341.17168 C 551.24387,419.73161 547.40382,554.40146 469.52384,635.21929 C 379.60833,728.52667 227.28964,723.61708 136.42861,634.50507 C 33.186543,533.25034 39.169282,363.25529 139.52378,262.36222 C 252.10635,149.17544 439.79726,156.23376 550.71425,267.83833 C 673.85312,391.74055 665.71752,597.14163 542.85719,718.07642"
       transform="translate(54.285714,28.571429)"
       id="path2463"
       style="fill:none;fill-rule:evenodd;stroke:#000000;stroke-width:1px;stroke-linecap:butt;stroke-linejoin:miter;stroke-opacity:1" />
    <path
       d="M 417.14285,392.36218 C 407.83144,407.54696 392.08015,387.30221 391.90475,376.886 C 391.42944,348.65869 424.72462,336.11959 448.09523,341.88599 C 489.89977,352.20071 506.23145,401.09841 492.85715,438.79074 C 473.22982,494.10577 406.93437,514.70026 355.2381,493.31458 C 286.33511,464.81083 261.39008,380.5739 290.95236,314.98125 C 328.15347,232.43958 430.56089,203.1106 509.99998,240.93359 C 606.21135,286.7423 639.9417,407.43787 593.80954,500.69549 C 539.4444,610.59637 400.39217,648.73867 293.33336,594.26697 C 169.72971,531.37724 127.16845,373.92493 189.99996,253.0765 C 261.39313,115.76083 437.27482,68.775677 571.90472,139.9812 C 722.93913,219.86303 774.35177,414.19481 694.76194,562.60024 C 606.40214,727.3584 393.60507,783.20124 231.42861,695.21937"
       transform="matrix(-0.5169372,0.8560233,-0.8560233,-0.5169372,930.16008,342.80939)"
       id="path2465"
       style="fill:none;fill-rule:evenodd;stroke:#000000;stroke-width:1px;stroke-linecap:butt;stroke-linejoin:miter;stroke-opacity:1" />
  </g>
</svg>
